<svg width="70" height="60" viewBox="0 0 70 60" fill="none" xmlns="http://www.w3.org/2000/svg">
<path d="M29.5081 54.2603C27.9714 54.7961 26.3884 55.1358 24.7824 55.2816C25.9247 54.7146 27.0553 53.9836 28.1582 53.0892C28.5982 52.7325 28.6658 52.0866 28.309 51.6465C27.9521 51.2065 27.3061 51.1391 26.8663 51.4958C24.0464 53.7823 21.5155 54.5849 19.4265 54.6738C21.0107 53.1924 22.9224 50.5022 25.1789 45.8863C25.4277 45.3772 25.2168 44.763 24.7079 44.5143C24.199 44.2658 23.5847 44.4764 23.3359 44.9853C19.9683 51.8736 17.3669 54.224 16.2695 54.2237C16.1961 54.2237 16.1292 54.2132 16.0694 54.1928C15.7029 54.0676 15.469 53.4891 15.3622 53.1552C13.5679 47.5501 18.7646 27.8731 25.6338 18.29L30.2611 11.8348C30.5216 11.4711 30.7827 10.9503 30.9962 10.3687L31.1418 9.97167L31.2092 9.99464L31.0815 10.3977C30.8943 10.9885 30.7821 11.5601 30.7656 12.0074L30.4822 19.7492C30.4616 20.3154 30.9037 20.7911 31.4698 20.8119C31.4826 20.8123 31.4953 20.8126 31.5079 20.8126C32.0572 20.8126 32.512 20.3777 32.5323 19.8243L32.773 13.2475L34.2028 17.3875C34.3494 17.812 34.747 18.0787 35.1722 18.0787C35.2832 18.0787 35.3962 18.0605 35.5071 18.0222C36.0426 17.8373 36.3267 17.2534 36.1418 16.7179L36.0912 16.5716L36.0962 16.5801C36.3889 17.065 37.0191 17.2214 37.5043 16.9285C37.9894 16.6359 38.1455 16.0056 37.8528 15.5205L36.3782 13.0763C36.1057 12.6244 36.0228 12.0716 36.1511 11.5597L38.4701 2.29939C38.6258 1.67823 38.4809 1.03887 38.0729 0.545436C37.6648 0.0520034 37.0652 -0.210304 36.4247 -0.174199L30.9985 0.132419C30.2455 0.175088 29.5894 0.630638 29.2861 1.32142L26.2751 8.1853C26.0632 8.66834 25.6596 9.05455 25.1676 9.24506L14.5454 13.3585C9.87266 15.168 6.05115 18.2666 3.49359 22.319C1.11915 26.0813 -0.0873536 30.4826 0.0044128 35.0473C0.0961792 39.612 1.47869 43.9614 4.00248 47.625C6.72087 51.5714 10.664 54.5137 15.4057 56.1339C17.9087 56.9892 20.4538 57.417 22.9709 57.4168C25.4243 57.4168 27.8509 57.0102 30.183 56.1971C30.7179 56.0105 31.0003 55.4256 30.8137 54.8907C30.6272 54.3559 30.0428 54.0734 29.5081 54.2603V54.2603ZM31.1506 2.17877L36.4611 1.87872L34.6749 9.01133L29.0034 7.07343L31.1506 2.17877ZM5.69229 46.4616C3.39704 43.1296 2.13952 39.1683 2.05596 35.0063C1.97226 30.8442 3.06949 26.8358 5.22895 23.414C7.54977 19.7367 11.0276 16.921 15.2867 15.2718L23.2562 12.1856L18.9277 15.0198C15.6976 17.1349 12.8628 20.2847 10.7296 24.1286C8.76161 27.6749 7.42054 31.7237 6.85106 35.8378C6.77338 36.399 7.16534 36.9168 7.72647 36.9944C7.7742 37.0011 7.82152 37.0042 7.86843 37.0042C8.37253 37.0042 8.81208 36.6323 8.88319 36.1189C10.0163 27.932 14.2958 20.5047 20.0516 16.7359L27.9151 11.5869L23.9668 17.095C20.7157 21.6304 17.4683 28.9389 15.2802 36.6449C13.3751 43.3543 12.6051 49.1181 13.124 52.5207C12.101 51.6533 11.2323 50.5395 10.529 49.1819C9.29416 46.7987 8.62731 43.7449 8.60064 40.3505C8.59613 39.7841 8.13251 39.3242 7.56687 39.333C7.00041 39.3375 6.54486 39.8003 6.54923 40.3669C6.57768 43.9713 7.26641 47.1475 8.51558 49.7214C7.46061 48.7417 6.51313 47.6532 5.69229 46.4616V46.4616Z" fill="white"/>
<path d="M48.1502 16.4775C36.1021 16.4775 26.3002 26.2794 26.3002 38.3277C26.3002 50.3757 36.102 60.1776 48.1502 60.1776C60.1984 60.1776 70.0002 50.3757 70.0002 38.3277C70 26.2794 60.1982 16.4775 48.1502 16.4775V16.4775ZM48.1502 58.1261C37.2333 58.1261 28.3516 49.2446 28.3516 38.3275C28.3516 27.4105 37.2331 18.5288 48.1502 18.5288C59.0672 18.5288 67.9487 27.4105 67.9487 38.3275C67.9487 49.2446 59.0671 58.1261 48.1502 58.1261Z" fill="white"/>
<path d="M48.1502 20.6079C38.3796 20.6079 30.4306 28.5569 30.4306 38.3274C30.4306 48.0979 38.3796 56.0468 48.1502 56.0468C57.9208 56.0468 65.8699 48.0979 65.8699 38.3274C65.8699 28.5569 57.9208 20.6079 48.1502 20.6079ZM48.1502 53.9956C39.5107 53.9956 32.482 46.9669 32.482 38.3276C32.482 29.6883 39.5107 22.6595 48.1502 22.6595C56.7896 22.6595 63.8184 29.6883 63.8184 38.3276C63.8184 46.9669 56.7896 53.9956 48.1502 53.9956Z" fill="white"/>
<path d="M48.1502 25.635C41.1515 25.635 35.4577 31.3289 35.4577 38.3276C35.4577 45.3262 41.1515 51.0201 48.1502 51.0201C52.843 51.0201 57.1358 48.4399 59.3532 44.2863C59.6201 43.7866 59.4312 43.1653 58.9315 42.8984C58.4316 42.6315 57.8103 42.8205 57.5436 43.3202C55.6835 46.8045 52.0843 48.9689 48.1502 48.9689C42.2828 48.9689 37.5091 44.1954 37.5091 38.3278C37.5091 32.4602 42.2828 27.6866 48.1502 27.6866C54.0178 27.6866 58.7914 32.4602 58.7914 38.3278C58.7914 38.7019 58.7702 39.0882 58.7285 39.4752C58.6678 40.0384 59.0752 40.5441 59.6384 40.605C60.2013 40.6658 60.7073 40.2583 60.7682 39.6951C60.8177 39.2353 60.8428 38.7753 60.8428 38.3279C60.8427 31.3289 55.1488 25.635 48.1502 25.635V25.635Z" fill="white"/>
<path d="M40.7704 38.3276C40.7704 42.3969 44.0809 45.7075 48.1502 45.7075C52.2195 45.7075 55.5301 42.3969 55.5301 38.3276C55.5301 34.2583 52.2194 30.9478 48.1502 30.9478C44.0811 30.9478 40.7704 34.2583 40.7704 38.3276ZM53.4787 38.3276C53.4787 41.2657 51.0883 43.6561 48.1502 43.6561C45.2122 43.6561 42.8218 41.2657 42.8218 38.3276C42.8218 35.3896 45.2121 32.9992 48.1502 32.9992C51.0884 32.9992 53.4787 35.3895 53.4787 38.3276Z" fill="white"/>
</svg>
